<svg xmlns="http://www.w3.org/2000/svg" viewBox="0 0 900 430" role="img" aria-label="Profesor Plaza Muller logo">
  <defs>
    <filter id="redGlow" x="-30%" y="-30%" width="160%" height="160%">
      <feGaussianBlur stdDeviation="4.5" result="blur"/>
      <feMerge>
        <feMergeNode in="blur"/>
        <feMergeNode in="SourceGraphic"/>
      </feMerge>
    </filter>
    <filter id="yellowGlow" x="-30%" y="-30%" width="160%" height="160%">
      <feGaussianBlur stdDeviation="3.8" result="blur"/>
      <feMerge>
        <feMergeNode in="blur"/>
        <feMergeNode in="SourceGraphic"/>
      </feMerge>
    </filter>
  </defs>

  <g fill="none" stroke="#ff1a1a" stroke-width="8" stroke-linecap="round" stroke-linejoin="round" filter="url(#redGlow)">
    <rect x="175" y="70" width="550" height="250" rx="90"/>
    <path d="M130 185c-35 0-63 28-63 63s28 63 63 63h48V185z"/>
    <path d="M770 185h48c35 0 63 28 63 63s-28 63-63 63h-48z"/>
    <path d="M230 320c20 45 80 36 122 33 56-4 115-5 172 4 38 6 74 14 97 34 16 14 25 31 35 39"/>
  </g>

  <g fill="none" stroke="#e5ff2a" stroke-width="7" stroke-linecap="round" stroke-linejoin="round" filter="url(#yellowGlow)">
    <path d="M320 175c0-31 23-51 56-51h40c35 0 58 21 58 54 0 34-24 55-61 55h-48v44h132v30H320z"/>
    <path d="M530 175c0-31 23-51 56-51h40c35 0 58 21 58 54 0 34-24 55-61 55h-48v44h132v30H530z"/>
  </g>
</svg>
